<svg width="452" height="469" viewBox="0 0 452 469" fill="none" xmlns="http://www.w3.org/2000/svg">
<g clip-path="url(#clip0_53_176)">
<path d="M271.592 269.193C305.684 269.193 333.321 252.757 333.321 232.484C333.321 212.21 305.684 195.774 271.592 195.774C237.5 195.774 209.863 212.21 209.863 232.484C209.863 252.757 237.5 269.193 271.592 269.193Z" fill="white"/>
<path d="M271.629 271.994C254.645 271.994 238.635 268.036 226.55 260.849C214.008 253.391 207.102 243.318 207.102 232.486C207.102 221.654 214.008 211.582 226.55 204.124C238.635 196.937 254.645 192.979 271.629 192.979C288.614 192.979 304.624 196.937 316.709 204.124C329.251 211.582 336.157 221.654 336.157 232.486C336.157 243.318 329.251 253.39 316.709 260.849C304.624 268.036 288.614 271.994 271.629 271.994ZM271.629 198.576C255.637 198.576 240.644 202.254 229.411 208.934C218.634 215.343 212.699 223.707 212.699 232.486C212.699 241.265 218.634 249.63 229.411 256.039C240.644 262.718 255.637 266.397 271.629 266.397C287.622 266.397 302.615 262.719 313.848 256.039C324.624 249.63 330.56 241.265 330.56 232.486C330.56 223.707 324.624 215.343 313.848 208.934C302.615 202.255 287.622 198.576 271.629 198.576Z" fill="black"/>
<path d="M416.591 270.125C411.427 264.192 408.779 256.448 407.417 248.702C406.054 240.955 405.861 233.055 404.949 225.243C401.979 199.809 391.165 175.345 374.353 156.028C357.541 136.71 334.803 122.62 310.019 116.163L299.934 129.138C316.795 158.275 315.822 186.112 323.885 222.662C330.452 252.428 351.713 284.309 381.651 290.072L416.591 270.125Z" fill="white"/>
<path d="M381.654 292.723C381.487 292.723 381.319 292.707 381.149 292.675C366.624 289.878 353.062 281.006 341.928 267.018C332.138 254.718 324.811 239.167 321.295 223.232C318.834 212.074 317.228 201.848 315.675 191.959C312.169 169.628 309.141 150.342 297.638 130.465C297.097 129.53 297.177 128.362 297.839 127.51L307.924 114.535C308.575 113.699 309.661 113.329 310.687 113.597C335.917 120.17 359.238 134.621 376.353 154.287C393.467 173.952 404.558 199.042 407.582 224.934C407.934 227.953 408.183 231.013 408.424 233.971C408.808 238.688 409.205 243.565 410.028 248.242C411.556 256.931 414.357 263.52 418.591 268.384C419.552 269.488 419.436 271.163 418.331 272.124C417.227 273.085 415.552 272.969 414.591 271.864C409.706 266.252 406.505 258.826 404.805 249.16C403.939 244.24 403.532 239.238 403.138 234.401C402.901 231.488 402.656 228.476 402.314 225.549C399.414 200.707 388.773 176.635 372.352 157.767C356.312 139.336 334.592 125.68 311.032 119.178L303.113 129.365C314.382 149.534 317.415 168.853 320.914 191.137C322.454 200.947 324.047 211.091 326.474 222.089C332.539 249.582 352.549 281.769 382.152 287.468C383.59 287.744 384.531 289.134 384.254 290.572C384.01 291.84 382.899 292.722 381.654 292.723V292.723Z" fill="black"/>
<path d="M404.56 266.422C404.047 266.422 403.528 266.281 403.063 265.986C393.046 259.633 385.395 248.321 380.322 232.364C378.697 227.251 377.379 221.995 376.105 216.912C374.24 209.475 372.312 201.786 369.425 194.657C363.839 180.859 354.604 168.826 342.719 159.86C341.485 158.929 341.239 157.174 342.17 155.94C343.101 154.707 344.856 154.461 346.091 155.392C358.784 164.968 368.647 177.82 374.614 192.557C377.647 200.047 379.623 207.929 381.534 215.551C382.788 220.551 384.085 225.722 385.657 230.669C390.32 245.338 397.185 255.631 406.061 261.26C407.367 262.088 407.753 263.817 406.926 265.122C406.393 265.962 405.486 266.422 404.56 266.422Z" fill="black"/>
<path d="M406.607 288.846C406.276 288.846 405.939 288.787 405.612 288.663C389.077 282.372 377.778 269.034 371.212 258.953C362.929 246.237 357.452 232.004 352.156 218.24C351.601 216.797 352.321 215.178 353.764 214.623C355.206 214.069 356.826 214.788 357.381 216.23C362.573 229.724 367.942 243.677 375.903 255.899C382.015 265.283 392.477 277.677 407.603 283.432C409.048 283.981 409.773 285.598 409.223 287.042C408.798 288.159 407.735 288.846 406.607 288.846H406.607Z" fill="black"/>
<path d="M377.207 147.282C376.499 147.282 375.791 147.016 375.246 146.482C354.415 126.042 336.199 117.982 317.917 121.113C316.392 121.372 314.946 120.35 314.685 118.827C314.424 117.304 315.448 115.857 316.971 115.596C328.138 113.683 339.575 115.597 350.964 121.284C359.999 125.796 369.224 132.731 379.167 142.487C380.271 143.57 380.287 145.341 379.205 146.444C378.657 147.003 377.932 147.282 377.207 147.282Z" fill="black"/>
<path d="M300.51 136.403C308.953 136.403 315.798 129.56 315.798 121.118C315.798 112.677 308.953 105.834 300.51 105.834C292.067 105.834 285.223 112.677 285.223 121.118C285.223 129.56 292.067 136.403 300.51 136.403Z" fill="#F9DD8F"/>
<path d="M300.493 139.197C290.52 139.197 282.406 131.085 282.406 121.114C282.406 111.143 290.52 103.031 300.493 103.031C310.466 103.031 318.579 111.143 318.579 121.114C318.579 131.085 310.466 139.197 300.493 139.197ZM300.493 108.628C293.607 108.628 288.004 114.229 288.004 121.114C288.004 127.999 293.607 133.6 300.493 133.6C307.379 133.6 312.982 127.999 312.982 121.114C312.982 114.229 307.379 108.628 300.493 108.628Z" fill="black"/>
<path d="M256.73 160.118H286.481V213.326H256.73V160.118Z" fill="white"/>
<path d="M256.713 216.127C255.167 216.127 253.914 214.874 253.914 213.328V160.121C253.914 158.575 255.167 157.322 256.713 157.322H286.464C288.01 157.322 289.263 158.575 289.263 160.121V197.342C289.263 198.888 288.01 200.141 286.464 200.141C284.918 200.141 283.665 198.888 283.665 197.342V162.919H259.512V213.328C259.512 214.874 258.259 216.127 256.713 216.127Z" fill="black"/>
<path d="M218.48 166.813C239.753 188.184 267.646 179.143 276.854 172.653C296.603 158.735 300.311 131.473 301.009 118.264C302.445 91.1175 295.346 63.4645 280.301 40.7864C272.27 28.6806 261.684 17.6589 248.132 12.4204C234.138 7.01111 218.383 9.74373 204.776 16.0644C151.727 40.7075 178.581 126.729 218.48 166.813H218.48Z" fill="white"/>
<path d="M250.427 183.011C239.356 183.011 227.087 179.439 216.488 168.79C202.67 154.909 190.148 135.217 182.134 114.764C173.521 92.788 170.486 71.1101 173.586 53.7235C175.191 44.7219 178.401 36.8106 183.127 30.2092C188.232 23.0773 195.116 17.4657 203.588 13.53C219.743 6.02562 235.918 4.70562 249.132 9.81379C261.598 14.6326 272.867 24.5341 282.625 39.2432C297.77 62.0724 305.289 90.1897 303.795 118.416C303.002 133.417 298.655 160.71 278.458 174.944C272.903 178.859 262.36 183.01 250.427 183.011ZM232.021 12.348C223.781 12.348 214.891 14.4513 205.947 18.606C191.179 25.4662 182.146 37.6118 179.098 54.706C172.605 91.1154 195.027 139.296 220.456 164.842C229.995 174.425 240.684 177.428 250.146 177.429C261.945 177.43 271.838 172.762 275.233 170.369C293.497 157.497 297.466 132.108 298.205 118.12C299.635 91.0855 292.446 64.1718 277.96 42.3366C268.855 28.6122 258.477 19.4262 247.113 15.0339C242.469 13.2384 237.382 12.348 232.021 12.348Z" fill="black"/>
<path d="M286.656 93.3259C285.993 88.9649 287.234 84.3482 289.995 80.9076C292.756 77.467 296.995 75.2543 301.396 74.956C308.319 74.4867 315.16 78.9093 318.082 85.2017C321.003 91.4941 320.126 99.2451 316.346 105.063C312.566 110.88 305.349 114.755 298.519 115.979" fill="white"/>
<path d="M298.496 118.779C297.166 118.779 295.987 117.828 295.744 116.474C295.471 114.953 296.484 113.498 298.005 113.226C304.661 112.033 310.93 108.231 313.978 103.54C317.348 98.3542 317.954 91.6188 315.522 86.3817C313.025 81.0012 307.158 77.3714 301.565 77.7501C297.945 77.9955 294.428 79.8312 292.158 82.6607C289.888 85.4901 288.858 89.3208 289.403 92.9072C289.635 94.4351 288.584 95.8623 287.056 96.0945C285.528 96.3268 284.1 95.2757 283.868 93.7484C283.092 88.6416 284.558 83.1873 287.791 79.1582C291.025 75.1294 296.032 72.5154 301.187 72.1659C309.128 71.63 317.109 76.5048 320.6 84.0254C323.824 90.969 323.067 99.8256 318.673 106.589C314.763 112.606 307.223 117.26 298.993 118.735C298.826 118.765 298.66 118.779 298.496 118.779Z" fill="black"/>
<path d="M208.258 113.695C208.147 121.328 205.556 128.904 200.97 135.007C198.702 138.025 195.953 140.706 194.113 144.003C192.273 147.301 191.478 151.529 193.356 154.804C195.439 158.436 200.292 159.763 204.369 158.806C208.446 157.85 211.851 155.078 214.776 152.082C221.067 145.638 226.024 134.098 227.799 124.558" fill="white"/>
<path d="M201.823 161.887C197.669 161.887 193.205 160.141 190.94 156.191C188.775 152.415 189.051 147.347 191.681 142.635C193.009 140.256 194.707 138.234 196.349 136.278C197.198 135.268 197.999 134.314 198.745 133.321C202.981 127.685 205.369 120.699 205.472 113.65C205.494 112.119 206.743 110.893 208.27 110.893H208.311C209.857 110.915 211.092 112.186 211.069 113.731C210.95 121.956 208.163 130.107 203.22 136.683C202.384 137.796 201.495 138.854 200.637 139.877C199.095 141.713 197.638 143.448 196.57 145.362C195.286 147.664 194.408 150.986 195.797 153.407C197.285 156.004 201.001 156.721 203.742 156.078C207.497 155.197 210.701 152.257 212.785 150.123C218.184 144.593 223.231 133.869 225.059 124.043C225.342 122.523 226.804 121.519 228.323 121.803C229.843 122.086 230.846 123.547 230.563 125.066C228.863 134.204 223.945 146.705 216.791 154.032C214.219 156.668 210.199 160.312 205.021 161.527C204.008 161.764 202.927 161.887 201.824 161.887L201.823 161.887Z" fill="black"/>
<path d="M225.516 99.1532C224.435 99.1532 223.406 98.5235 222.947 97.4694C222.331 96.052 222.981 94.4035 224.399 93.7876L245.741 84.5129C247.159 83.8964 248.808 84.5462 249.424 85.9639C250.04 87.3812 249.391 89.0298 247.973 89.6457L226.63 98.9204C226.267 99.0782 225.888 99.1532 225.516 99.1532Z" fill="black"/>
<path d="M237.817 106.144C239.917 105.223 240.295 101.459 238.662 97.7358C237.029 94.0129 234.003 91.7412 231.903 92.6619C229.804 93.5825 229.426 97.3469 231.059 101.07C232.692 104.793 235.718 107.064 237.817 106.144Z" fill="black"/>
<path d="M226.913 97.4815C226.735 97.4815 226.555 97.4644 226.374 97.4289C224.857 97.1328 223.867 95.6631 224.163 94.1464C224.532 92.2544 224.248 91.1756 223.146 88.6822C222.521 87.2685 223.16 85.6163 224.574 84.9914C225.988 84.3669 227.641 85.006 228.266 86.4197C229.488 89.184 230.366 91.587 229.657 95.219C229.396 96.5546 228.225 97.4815 226.913 97.4815Z" fill="black"/>
<path d="M187.754 113.869C186.674 113.869 185.644 113.24 185.186 112.185C184.57 110.768 185.219 109.12 186.637 108.504L203.87 101.015C205.287 100.398 206.936 101.049 207.552 102.466C208.168 103.883 207.519 105.532 206.101 106.148L188.868 113.636C188.505 113.794 188.126 113.869 187.754 113.869Z" fill="black"/>
<path d="M200.056 120.855C202.155 119.934 202.533 116.17 200.9 112.447C199.267 108.724 196.241 106.452 194.141 107.373C192.042 108.294 191.664 112.058 193.297 115.781C194.93 119.504 197.956 121.776 200.056 120.855Z" fill="black"/>
<path d="M189.179 112.199C189.001 112.199 188.821 112.182 188.639 112.147C187.122 111.851 186.132 110.381 186.429 108.864C186.798 106.972 186.514 105.893 185.411 103.4C184.787 101.986 185.426 100.334 186.84 99.7091C188.254 99.0842 189.907 99.7237 190.532 101.137C191.754 103.902 192.632 106.305 191.923 109.937C191.662 111.273 190.491 112.2 189.179 112.2V112.199Z" fill="black"/>
<path d="M246.205 150.03C245.183 150.03 244.21 149.437 243.774 148.442C243.187 147.1 243.798 145.537 245.139 144.95C252.644 141.664 257.857 133.649 257.817 125.458C257.81 123.994 258.991 122.802 260.455 122.794C261.915 122.78 263.113 123.968 263.12 125.432C263.17 135.675 256.651 145.698 247.266 149.807C246.92 149.958 246.56 150.03 246.205 150.03Z" fill="black"/>
<path d="M263.325 130.46C262.435 130.46 261.566 130.012 261.065 129.199C259.62 126.855 257.264 125.105 254.601 124.399C253.186 124.023 252.343 122.572 252.718 121.157C253.094 119.741 254.546 118.898 255.961 119.274C259.923 120.325 263.429 122.929 265.579 126.418C266.347 127.664 265.959 129.297 264.713 130.065C264.279 130.332 263.799 130.46 263.324 130.46L263.325 130.46Z" fill="black"/>
<path d="M183.012 24.4884C186.919 19.7236 215.698 -2.27813 246.871 3.8825C298.687 14.1226 299.365 61.5501 303.143 74.9258L292.96 76.7148C272.132 78.4162 248.694 74.0857 229.862 65.0277C211.031 55.9696 194.68 41.821 183.012 24.4884Z" fill="white"/>
<path d="M283.983 79.8675C265.192 79.8675 245.103 75.4545 228.659 67.5449C209.287 58.2265 192.703 43.8767 180.7 26.0463C180.01 25.0212 180.073 23.6649 180.857 22.7092C182.888 20.2327 191.109 13.2664 203.557 7.54144C214.018 2.73019 230.12 -2.28759 247.424 1.13259C267.467 5.09342 282.489 15.0137 292.073 30.6169C300.026 43.5642 302.634 57.6873 304.36 67.0331C304.894 69.9249 305.356 72.4222 305.847 74.1608C306.062 74.9225 305.944 75.7396 305.523 76.4096C305.102 77.0801 304.417 77.5404 303.638 77.6772L293.455 79.4665C293.37 79.4816 293.284 79.4926 293.198 79.4995C290.178 79.7464 287.097 79.8675 283.983 79.8675ZM186.637 24.8021C197.971 40.9365 213.297 53.9442 231.086 62.5011C249.36 71.2916 272.35 75.5603 292.614 73.9316L299.744 72.6788C299.453 71.2874 299.166 69.7321 298.855 68.0491C295.436 49.5331 289.071 15.068 246.339 6.62301C230.505 3.49387 215.606 8.15988 205.897 12.6255C196.415 16.9868 189.627 22.0939 186.637 24.8021Z" fill="black"/>
<path d="M152.453 45.7024C151.049 45.7024 149.878 44.6007 149.807 43.1833C149.406 35.1489 155.872 28.7339 162.05 26.1742C168.75 23.3976 176.799 21.7402 183.047 21.8381C184.511 21.8619 185.679 23.068 185.655 24.5318C185.631 25.9957 184.435 27.1682 182.961 27.1391C177.394 27.0543 170.153 28.5556 164.081 31.0719C159.566 32.9432 154.83 37.4486 155.103 42.9194C155.176 44.3818 154.05 45.6263 152.587 45.6993C152.542 45.7016 152.497 45.7027 152.453 45.7027V45.7024Z" fill="black"/>
<path d="M196.363 73.4022C195.723 73.4022 195.082 73.1725 194.573 72.7068C183.166 62.2683 178.507 43.4464 183.496 27.9526C183.944 26.559 185.439 25.7931 186.832 26.2414C188.226 26.69 188.992 28.1832 188.543 29.5771C184.159 43.1945 188.201 59.6885 198.153 68.7955C199.233 69.7839 199.308 71.461 198.319 72.5411C197.796 73.1123 197.08 73.4022 196.362 73.4022H196.363Z" fill="black"/>
<path d="M163.65 51.1036C163.275 51.1036 162.894 51.0236 162.532 50.8545C161.205 50.2361 160.63 48.6586 161.249 47.3319C165.384 38.4619 172.866 31.0515 181.777 27.0006C183.11 26.3953 184.682 26.9835 185.288 28.3164C185.894 29.6492 185.305 31.2211 183.972 31.8272C176.195 35.3627 169.665 41.8303 166.056 49.5718C165.606 50.5364 164.649 51.1036 163.65 51.1036Z" fill="black"/>
<path d="M179.275 98.7222C178.609 98.7222 177.941 98.4863 177.407 98.0072C176.256 96.9755 176.16 95.2063 177.192 94.0556C181.831 88.882 188.751 85.7716 195.701 85.7363H195.715C197.255 85.7363 198.506 86.9796 198.514 88.5204C198.522 90.0657 197.275 91.325 195.729 91.3331C190.334 91.3608 184.961 93.7755 181.359 97.792C180.806 98.4082 180.042 98.7222 179.275 98.7222Z" fill="black"/>
<path d="M212.525 84.148C211.859 84.148 211.191 83.9121 210.657 83.433C209.506 82.4012 209.41 80.6321 210.442 79.4814C215.081 74.3081 222.001 71.1976 228.951 71.1621H228.965C230.505 71.1621 231.756 72.4054 231.764 73.9462C231.772 75.4915 230.525 76.7508 228.979 76.7589C223.584 76.7866 218.211 79.201 214.609 83.2175C214.056 83.8337 213.292 84.1477 212.524 84.1477L212.525 84.148Z" fill="black"/>
<path d="M189.669 208.585C178.187 211.806 162.169 226.355 154.487 235.474C146.322 245.166 143.03 259.982 137.599 271.822C131.483 285.155 120.123 294.028 115.317 307.466C113.043 313.825 114.256 323.054 112.268 329.509C109.902 337.192 103.375 342.227 101.01 349.91C96.6706 364 95.1983 378.109 96.0878 392.825C96.9773 407.54 104.281 422.795 117.664 428.985C128.694 434.087 142.06 432.148 152.681 426.243C160.68 421.796 167.473 415.207 172.16 407.348C176.902 399.396 175.157 388.169 178.88 379.692C198.348 335.371 208.203 287.152 221.342 240.009C222.618 235.429 217.346 219.294 217.346 219.294C217.346 219.294 206.792 203.781 189.669 208.585L189.669 208.585Z" fill="white"/>
<path d="M131.695 434.741C126.345 434.741 121.178 433.679 116.527 431.527C109.702 428.371 103.914 422.82 99.7885 415.475C96.0514 408.822 93.8186 401.049 93.3319 392.996C92.3956 377.506 94.0445 363.144 98.3725 349.09C99.6847 344.828 102.073 341.412 104.383 338.109C106.54 335.024 108.577 332.11 109.631 328.689C110.484 325.918 110.686 322.451 110.9 318.78C111.146 314.57 111.4 310.217 112.719 306.527C115.446 298.902 120.159 292.685 124.716 286.673C128.489 281.696 132.391 276.549 135.093 270.658C136.807 266.921 138.287 262.924 139.853 258.692C143.144 249.798 146.548 240.602 152.384 233.675C159.857 224.804 176.392 209.417 188.951 205.894C196.776 203.698 204.59 205.06 211.549 209.833C216.703 213.368 219.578 217.546 219.698 217.722C219.846 217.94 219.963 218.177 220.044 218.428C221.343 222.401 225.471 235.756 224.075 240.763C220.782 252.58 217.642 264.671 214.605 276.363C205.531 311.3 196.148 347.427 181.48 380.82C179.941 384.324 179.423 388.452 178.874 392.823C178.186 398.301 177.475 403.965 174.601 408.783C169.641 417.101 162.544 423.985 154.079 428.692C146.865 432.702 139.105 434.742 131.695 434.742L131.695 434.741ZM196.248 210.461C194.346 210.461 192.416 210.734 190.463 211.282C179.718 214.297 164.23 228.299 156.666 237.279C151.459 243.46 148.228 252.19 145.103 260.634C143.57 264.777 141.984 269.061 140.181 272.991C137.223 279.44 133.133 284.835 129.178 290.053C124.678 295.989 120.428 301.596 117.991 308.411C116.942 311.344 116.712 315.29 116.489 319.105C116.265 322.947 116.033 326.919 114.981 330.335C113.669 334.596 111.281 338.012 108.971 341.316C106.814 344.401 104.777 347.315 103.723 350.736C99.596 364.138 98.0249 377.85 98.92 392.658C99.8476 408.006 107.682 421.269 118.878 426.448C128.352 430.831 140.494 429.84 151.359 423.8C158.963 419.572 165.338 413.389 169.794 405.917C172.068 402.105 172.676 397.258 173.321 392.126C173.895 387.55 174.489 382.819 176.356 378.57C190.844 345.586 200.169 309.68 209.188 274.956C212.231 263.24 215.377 251.126 218.684 239.261C219.319 236.981 217.214 227.89 214.859 220.582C214.174 219.673 211.85 216.791 208.234 214.346C204.406 211.759 200.392 210.461 196.248 210.461L196.248 210.461Z" fill="black"/>
<path d="M267.234 206.26C276.217 206.318 295.543 209.07 303.954 212.226C304.957 220.065 293.91 254.584 293.91 254.584L249.512 250.634C249.512 250.634 255.128 231.792 256.752 228.288C258.5 224.515 261.15 223.155 261.837 219.054C262.011 218.017 268.083 206.266 267.234 206.261V206.26Z" fill="white"/>
<path d="M293.895 257.378C293.812 257.378 293.729 257.374 293.645 257.367L249.246 253.417C248.41 253.342 247.65 252.896 247.178 252.2C246.706 251.505 246.572 250.635 246.812 249.83C247.393 247.881 252.534 230.691 254.194 227.107C255.025 225.316 256.003 224.019 256.865 222.875C257.967 221.415 258.762 220.36 259.059 218.587C259.178 217.879 259.567 217.013 261.328 213.286C262.27 211.293 263.944 207.75 264.421 206.399C264.418 206.346 264.417 206.292 264.417 206.238C264.427 204.699 265.679 203.458 267.216 203.458H267.235C276.794 203.52 296.454 206.425 304.92 209.602C305.891 209.966 306.581 210.838 306.713 211.867C307.764 220.085 297.709 251.839 296.559 255.433C296.186 256.6 295.101 257.378 293.895 257.378ZM253.165 248.146L291.903 251.593C295.709 239.445 300.805 221.143 301.186 214.238C293.301 211.768 278.277 209.502 269.375 209.113C269.22 209.494 269.044 209.902 268.851 210.345C268.154 211.942 267.217 213.926 266.389 215.677C265.664 217.213 264.769 219.105 264.55 219.688C264.003 222.708 262.587 224.585 261.335 226.245C260.573 227.255 259.853 228.21 259.274 229.46C258.224 231.725 255.083 241.825 253.164 248.146H253.165Z" fill="black"/>
<path d="M208.115 206.688C208.627 213.315 203.689 220.623 202.953 227.227C201.398 241.167 201.931 254.171 195.154 266.455C190.596 274.718 184.907 282.449 181.768 291.349C177.144 304.458 177.935 320.204 182.15 333.677C184.007 339.614 178.861 346.389 178.271 352.485C176.818 367.521 173.018 381.256 171.647 396.536C170.359 410.895 172.564 429.926 171.275 444.285C189.291 445.989 207.706 440.473 225.768 441.595C252.717 443.269 257.148 446.234 284.146 446.609C294.392 446.751 306.42 444.585 320.54 444.285C344.891 443.768 360.056 444.821 376.708 438.905C369.932 411.639 369.144 356.469 369.144 356.469C369.144 356.469 357.722 345.157 352.763 330.389C347.981 316.149 346.206 300.858 344.101 287.234C330.302 288.195 327.269 269.99 325.701 256.67C324.45 246.045 321.879 235.143 325.481 224.473C327.266 219.183 333.936 211.427 332.763 206.255C321.907 202.954 312.639 202.207 312.639 202.207C312.639 202.207 276.02 232.138 268.337 236.688C258.109 242.747 255.343 239.334 247.1 247.9C245.49 245.985 243.88 244.071 242.269 242.156C237.953 237.024 232.004 236.988 229.191 230.901C227.83 227.955 228.439 219.609 228.088 216.377C227.865 214.323 229.463 208.608 228.557 207.13C226.622 203.976 212.018 206.531 208.115 206.688L208.115 206.688Z" fill="#85CBF8"/>
<path d="M285.126 449.416C284.787 449.416 284.451 449.414 284.116 449.41C268.645 449.195 260.661 448.158 251.415 446.958C244.415 446.049 237.177 445.11 225.603 444.39C217.194 443.868 208.44 444.856 199.973 445.812C190.495 446.882 180.695 447.989 171.02 447.073C169.487 446.928 168.358 445.572 168.496 444.037C169.126 437.021 168.895 428.617 168.672 420.489C168.444 412.201 168.209 403.631 168.868 396.288C169.581 388.342 170.951 380.75 172.276 373.407C173.515 366.542 174.796 359.442 175.494 352.218C175.76 349.467 176.772 346.754 177.751 344.129C179.078 340.572 180.331 337.213 179.487 334.515C174.737 319.329 174.609 303.257 179.137 290.42C181.404 283.993 184.929 278.175 188.337 272.549C189.811 270.118 191.334 267.604 192.712 265.105C197.745 255.984 198.532 246.203 199.366 235.848C199.6 232.95 199.841 229.952 200.179 226.919C200.535 223.732 201.716 220.531 202.858 217.434C204.257 213.645 205.577 210.065 205.333 206.906C205.275 206.148 205.527 205.399 206.032 204.831C206.537 204.263 207.252 203.925 208.011 203.894C208.777 203.863 210.141 203.714 211.72 203.541C221.556 202.463 228.692 201.985 230.952 205.67C231.949 207.295 231.713 209.524 231.206 213.003C231.056 214.036 230.828 215.597 230.88 216.077C231.012 217.289 231.023 218.951 231.036 220.876C231.054 223.656 231.085 228.31 231.741 229.73C232.962 232.371 234.977 233.541 237.527 235.023C239.732 236.304 242.232 237.755 244.421 240.357L247.321 243.805C251.492 240.078 254.57 239.149 257.8 238.174C260.358 237.401 263.003 236.603 266.919 234.283C274.334 229.891 310.511 200.34 310.876 200.043C311.436 199.585 312.151 199.364 312.872 199.42C313.263 199.451 322.568 200.229 333.587 203.58C334.549 203.873 335.279 204.658 335.502 205.638C336.501 210.043 333.745 214.878 331.081 219.555C329.849 221.716 328.686 223.757 328.141 225.369C325.373 233.571 326.53 241.92 327.754 250.759C328.008 252.589 328.27 254.48 328.489 256.344C329.271 262.987 330.405 270.539 332.885 276.183C336.337 284.036 340.832 284.659 343.915 284.444C345.369 284.341 346.654 285.371 346.876 286.809C347.202 288.916 347.512 291.012 347.84 293.231C349.619 305.255 351.459 317.689 355.425 329.5C360.103 343.431 371.014 354.374 371.123 354.483C371.642 354.999 371.94 355.699 371.951 356.43C371.959 356.979 372.813 411.593 379.433 438.231C379.78 439.628 379.01 441.061 377.654 441.543C363.472 446.582 350.505 446.72 332.559 446.912C328.768 446.952 324.848 446.994 320.608 447.084C313.787 447.229 307.549 447.808 301.516 448.367C295.716 448.905 290.218 449.415 285.125 449.415L285.126 449.416ZM220.718 438.648C222.465 438.648 224.209 438.697 225.95 438.805C237.712 439.535 245.375 440.53 252.136 441.408C261.21 442.586 269.046 443.603 284.194 443.814C289.269 443.884 294.967 443.356 300.999 442.796C306.844 442.254 313.469 441.639 320.49 441.49C324.76 441.399 328.695 441.357 332.5 441.317C348.867 441.142 360.962 441.013 373.409 437.068C367.604 411.076 366.52 365.528 366.373 357.622C363.594 354.673 354.511 344.361 350.119 331.282C345.995 319.001 344.118 306.317 342.303 294.052C342.099 292.67 341.901 291.337 341.703 290.021C335.612 289.533 330.93 285.647 327.761 278.436C324.984 272.117 323.761 264.054 322.93 256.999C322.718 255.192 322.46 253.33 322.21 251.528C320.95 242.435 319.647 233.032 322.838 223.581C323.555 221.456 324.848 219.187 326.217 216.785C327.784 214.036 329.661 210.742 330.044 208.375C322.536 206.261 316.026 205.392 313.519 205.111C307.709 209.848 276.958 234.843 269.773 239.099C265.272 241.765 262.027 242.745 259.419 243.532C255.837 244.614 253.47 245.329 249.127 249.843C248.576 250.415 247.813 250.732 247.016 250.7C246.223 250.673 245.478 250.311 244.967 249.704L240.136 243.961C238.576 242.105 236.701 241.016 234.715 239.863C231.859 238.204 228.622 236.324 226.659 232.078C225.579 229.74 225.472 225.976 225.438 220.914C225.427 219.216 225.416 217.612 225.315 216.682C225.186 215.495 225.409 213.967 225.667 212.197C225.814 211.184 226.043 209.617 226.053 208.732C225.465 208.556 224.07 208.296 221.072 208.381C218.191 208.463 214.941 208.819 212.33 209.105C211.817 209.161 211.335 209.214 210.887 209.262C210.576 212.69 209.327 216.075 208.11 219.372C207.037 222.282 206.023 225.03 205.743 227.54C205.415 230.487 205.177 233.441 204.946 236.298C204.063 247.27 203.228 257.633 197.614 267.809C196.181 270.406 194.628 272.97 193.126 275.449C189.714 281.08 186.492 286.399 184.417 292.282C180.282 304.003 180.433 318.788 184.83 332.844C186.246 337.372 184.519 342.001 182.996 346.085C182.104 348.477 181.262 350.736 181.066 352.757C180.346 360.21 179.044 367.424 177.785 374.401C176.482 381.623 175.134 389.09 174.444 396.789C173.814 403.805 174.045 412.209 174.268 420.336C174.467 427.579 174.671 435.037 174.28 441.703C182.537 442.147 191.068 441.185 199.345 440.251C206.347 439.461 213.542 438.648 220.718 438.648Z" fill="black"/>
<path d="M277.191 239.271C288.198 228.135 299.205 217 310.212 205.864C312.29 203.762 316.923 202.891 316.19 200.028C315.73 198.232 311.814 195.132 310.365 193.976C307.889 191.999 303.577 184.223 299.027 182.247C294.693 180.364 288.373 180.223 288.373 180.223C288.373 180.223 289.233 186.403 287.348 188.046C284.233 190.763 282.064 193.46 278.948 196.177C275.617 199.081 267.203 206.262 267.203 206.262C267.203 206.262 270.985 218.205 271.657 222.29C272.072 224.821 278.697 237.736 277.191 239.271Z" fill="white"/>
<path d="M277.201 242.066C276.492 242.066 275.783 241.798 275.238 241.262C274.406 240.443 274.194 239.231 274.608 238.213C274.403 236.536 272.359 231.687 271.233 229.014C269.835 225.696 269.097 223.91 268.905 222.74C268.381 219.553 265.58 210.372 264.545 207.103C264.205 206.03 264.541 204.859 265.396 204.13C265.48 204.058 273.836 196.925 277.118 194.064C278.592 192.779 279.837 191.503 281.156 190.152C282.469 188.807 283.826 187.417 285.428 186.012C285.809 185.294 285.899 182.714 285.61 180.601C285.499 179.79 285.749 178.968 286.295 178.357C286.84 177.746 287.622 177.399 288.445 177.421C288.726 177.427 295.37 177.598 300.153 179.676C303.729 181.23 306.811 185.219 309.287 188.425C310.373 189.831 311.496 191.285 312.122 191.785L312.2 191.847C315.818 194.735 318.343 197.112 318.912 199.33C319.922 203.275 316.439 205.241 314.358 206.416C313.523 206.887 312.661 207.374 312.213 207.827L279.192 241.234C278.645 241.788 277.923 242.066 277.201 242.066ZM270.435 207.186C271.528 210.72 273.887 218.536 274.429 221.833C274.552 222.473 275.615 224.998 276.392 226.842C277.51 229.495 278.396 231.653 279.034 233.432L308.232 203.893C309.228 202.885 310.491 202.172 311.605 201.543C312.117 201.255 312.897 200.814 313.321 200.484C312.911 199.906 311.785 198.678 308.708 196.222L308.629 196.159C307.477 195.239 306.263 193.667 304.857 191.847C302.882 189.291 300.178 185.79 297.922 184.81C295.93 183.944 293.374 183.493 291.399 183.26C291.396 185.734 290.959 188.617 289.199 190.152C287.726 191.436 286.481 192.711 285.163 194.062C283.825 195.432 282.441 196.85 280.797 198.283C278.318 200.444 272.981 205.012 270.435 207.186Z" fill="black"/>
<path d="M237.52 192.494C234.561 192.969 227.19 194.706 225.785 197.353C225.59 208.864 229.395 219.394 229.201 230.904C233.541 223.932 238.787 216.504 245.825 212.269C249.589 210.004 256.718 203.117 256.718 203.117L255.022 188.043C255.022 188.043 241.115 191.916 237.52 192.494Z" fill="white"/>
<path d="M229.211 233.705C228.948 233.705 228.681 233.668 228.419 233.591C227.212 233.235 226.391 232.117 226.412 230.859C226.505 225.356 225.648 220.123 224.74 214.583C223.833 209.043 222.894 203.315 222.996 197.309C223.003 196.867 223.115 196.434 223.322 196.044C225.53 191.886 234.415 190.162 237.086 189.733C239.907 189.28 250.455 186.415 254.281 185.35C255.071 185.13 255.918 185.267 256.598 185.726C257.278 186.185 257.722 186.918 257.814 187.733L259.509 202.806C259.607 203.669 259.298 204.528 258.673 205.132C258.372 205.422 251.269 212.267 247.278 214.669C240.707 218.623 235.659 225.844 231.587 232.385C231.067 233.221 230.159 233.706 229.21 233.706L229.211 233.705ZM228.586 198.355C228.599 203.512 229.41 208.459 230.265 213.678C230.731 216.526 231.206 219.423 231.543 222.382C235.085 217.541 239.274 212.954 244.391 209.874C246.856 208.391 251.363 204.332 253.791 202.05L252.617 191.612C248.242 192.803 240.615 194.835 237.974 195.259C233.789 195.931 229.843 197.366 228.586 198.355L228.586 198.355Z" fill="black"/>
<path d="M213.707 227.271C213.665 227.271 213.623 227.27 213.58 227.268C212.09 227.201 210.913 225.978 210.906 224.486L210.902 223.843C210.9 223.409 210.997 222.997 211.172 222.628C212.214 217.797 216.047 209.359 222.83 196.953C223.065 196.522 223.236 196.21 223.325 196.041C224.049 194.675 225.742 194.153 227.109 194.877C228.475 195.6 228.996 197.293 228.273 198.659C228.177 198.841 227.994 199.175 227.742 199.637C218.402 216.72 216.684 222.694 216.491 224.735C216.355 226.178 215.142 227.271 213.707 227.271Z" fill="black"/>
<path d="M355.274 205.329C361.954 207.203 366.701 214.785 373.915 221.552C379.101 226.417 387.237 230.259 390.45 234.073C398.615 243.765 401.906 258.581 407.337 270.421C413.454 283.754 424.814 292.627 429.62 306.065C431.894 312.424 430.681 321.653 432.669 328.108C435.035 335.791 441.562 340.826 443.927 348.509C448.266 362.599 449.738 376.708 448.849 391.424C447.959 406.139 440.655 421.394 427.273 427.584C416.243 432.686 402.877 430.747 392.256 424.842C384.257 420.395 377.464 413.806 372.777 405.947C368.034 397.995 369.78 386.768 366.057 378.291C362.917 371.143 364.146 358.255 358.07 346.899C352.228 335.978 344.111 287.24 344.111 287.24C344.111 287.24 334.551 284.395 332.191 280.431C322.735 264.541 328.281 257.459 322.735 239.271C319.223 227.75 333.864 207.344 333.864 207.344C333.864 207.344 338.152 200.525 355.274 205.329V205.329Z" fill="white"/>
<path d="M413.288 433.338C405.878 433.338 398.119 431.298 390.904 427.288C382.439 422.581 375.343 415.697 370.382 407.379C367.508 402.561 366.797 396.897 366.109 391.419C365.561 387.048 365.042 382.92 363.503 379.416C362.067 376.148 361.471 371.976 360.84 367.559C359.965 361.44 358.974 354.504 355.611 348.218C350.179 338.066 343.155 298.224 341.643 289.379C338.388 288.251 332.049 285.65 329.795 281.861C323.948 272.036 323.486 265.167 322.997 257.894C322.649 252.725 322.29 247.379 320.067 240.086C318.396 234.606 319.881 227.091 324.48 217.751C327.641 211.332 331.165 206.322 331.566 205.759C332.389 204.536 337.995 197.572 356.038 202.635C361.418 204.144 365.522 208.61 369.867 213.337C371.743 215.379 373.682 217.489 375.839 219.512C378.152 221.682 381.173 223.684 384.094 225.62C387.474 227.861 390.667 229.977 392.599 232.27C398.435 239.198 401.839 248.394 405.13 257.288C406.696 261.52 408.176 265.517 409.89 269.254C412.592 275.145 416.494 280.291 420.267 285.269C424.824 291.281 429.537 297.498 432.263 305.123C433.583 308.813 433.837 313.166 434.083 317.376C434.297 321.047 434.499 324.514 435.352 327.284C436.406 330.706 438.444 333.62 440.6 336.705C442.91 340.009 445.299 343.425 446.611 347.686C450.939 361.74 452.588 376.102 451.651 391.592C451.165 399.644 448.932 407.418 445.195 414.071C441.069 421.416 435.281 426.967 428.457 430.123C423.806 432.275 418.638 433.337 413.288 433.337L413.288 433.338ZM336.218 208.88C336.194 208.924 336.208 208.892 336.148 208.975C332.302 214.343 322.876 230.106 325.422 238.455C327.833 246.363 328.231 252.29 328.583 257.519C329.064 264.674 329.444 270.326 334.606 279C335.842 281.078 341.382 283.501 344.92 284.559C345.944 284.865 346.706 285.727 346.881 286.781C349.663 303.482 356.099 337.263 360.547 345.579C364.376 352.735 365.442 360.19 366.382 366.768C366.982 370.97 367.501 374.599 368.629 377.166C370.495 381.415 371.089 386.147 371.664 390.722C372.308 395.854 372.917 400.701 375.19 404.513C379.646 411.985 386.021 418.169 393.625 422.396C404.49 428.437 416.633 429.426 426.107 425.044C437.303 419.865 445.137 406.602 446.064 391.254C446.959 376.447 445.388 362.734 441.262 349.333C440.208 345.911 438.17 342.997 436.014 339.912C433.704 336.608 431.315 333.192 430.003 328.931C428.951 325.515 428.719 321.543 428.496 317.701C428.273 313.886 428.043 309.941 426.994 307.006C424.557 300.192 420.306 294.585 415.806 288.649C411.851 283.431 407.761 278.036 404.803 271.587C403 267.657 401.415 263.373 399.881 259.23C396.756 250.787 393.525 242.056 388.319 235.876C386.905 234.197 384.037 232.297 381.002 230.285C377.887 228.221 374.667 226.086 372.01 223.594C369.702 221.429 367.691 219.24 365.746 217.124C361.791 212.82 358.374 209.103 354.527 208.023C340.757 204.16 336.613 208.424 336.219 208.88H336.218Z" fill="black"/>
<path d="M409.308 439.039C395.801 447.91 377.313 443.13 368.893 428.591L311.151 334.74C304.872 324.535 307.536 311.399 317.167 305.073C326.356 299.038 338.813 301.254 345.936 310.192L415.764 397.806C425.767 411.305 422.814 430.168 409.307 439.039L409.308 439.039Z" fill="white"/>
<path d="M394.403 446.318C392.006 446.318 389.583 446.035 387.17 445.464C378.565 443.429 371.045 437.804 366.53 430.03L308.808 336.21C305.398 330.668 304.22 324.165 305.49 317.899C306.769 311.595 310.385 306.21 315.671 302.738C320.716 299.425 326.82 298.191 332.858 299.266C338.859 300.334 344.296 303.596 348.166 308.452L417.994 396.065C418.014 396.091 418.034 396.117 418.054 396.143C423.414 403.377 425.6 412.525 424.05 421.241C422.557 429.633 417.882 436.785 410.885 441.381C405.923 444.64 400.244 446.317 394.402 446.317L394.403 446.318ZM328.632 304.462C325.205 304.462 321.779 305.423 318.745 307.416C310.326 312.946 308.056 324.305 313.576 333.278L371.318 427.129C371.33 427.15 371.343 427.171 371.356 427.193C375.1 433.658 381.334 438.333 388.459 440.018C395.242 441.623 402.115 440.445 407.812 436.704C413.509 432.962 417.319 427.123 418.539 420.262C419.818 413.07 418.012 405.511 413.585 399.514L343.788 311.94C339.899 307.06 334.265 304.462 328.632 304.462Z" fill="black"/>
<path d="M418.107 380.511C417.582 378.426 417.621 376.24 417.218 374.128C416.29 369.275 413.055 365.109 409.157 362.073C405.259 359.037 400.701 356.986 396.193 354.964C389.327 351.884 383.579 347.03 376.713 343.95C373.475 342.497 365.276 341.093 365.276 341.093C365.276 341.093 358.619 354.737 354.953 359.109C346.93 368.68 328.365 372.808 328.365 372.808C328.365 372.808 324.476 384.128 324.718 387.405C325.359 396.087 332.14 401.742 336.157 409.467C338.395 413.773 339.861 420.141 342.1 424.447C344.706 429.458 348.183 432.533 352.456 436.227C357.913 440.944 365.238 442.735 372.262 444.376C381.935 446.637 392.212 448.878 401.628 445.714C408.725 443.33 421.292 438.385 426.046 432.603C438.335 417.657 446.285 401.21 445.467 381.879L418.107 380.511L418.107 380.511Z" fill="white"/>
<path d="M391.285 450.08C384.362 450.08 377.53 448.483 371.631 447.104C364.995 445.553 356.735 443.623 350.633 438.347C346.472 434.75 342.542 431.353 339.624 425.74C338.41 423.407 337.435 420.596 336.491 417.877C335.613 415.348 334.706 412.732 333.681 410.76C332.41 408.317 330.778 406.001 329.2 403.762C325.865 399.029 322.415 394.134 321.934 387.614C321.67 384.041 324.769 374.685 325.725 371.902C326.042 370.981 326.814 370.291 327.765 370.079C327.94 370.04 345.506 366.034 352.816 357.315C355.639 353.945 360.957 343.579 362.768 339.869C363.313 338.751 364.529 338.128 365.756 338.337C366.631 338.487 374.405 339.846 377.867 341.399C381.479 343.019 384.769 345.089 387.952 347.091C391.11 349.077 394.092 350.953 397.347 352.413C401.944 354.475 406.698 356.607 410.885 359.868C415.782 363.682 419.011 368.56 419.975 373.605C420.177 374.66 420.277 375.684 420.373 376.673C420.483 377.801 420.586 378.866 420.829 379.831C421.206 381.33 420.296 382.851 418.797 383.228C417.298 383.607 415.777 382.695 415.4 381.196C415.055 379.825 414.926 378.499 414.801 377.216C414.713 376.312 414.63 375.458 414.476 374.655C413.767 370.946 411.27 367.262 407.445 364.283C403.791 361.438 399.35 359.446 395.055 357.52C391.443 355.9 388.153 353.83 384.97 351.828C381.812 349.842 378.829 347.965 375.575 346.506C373.735 345.68 369.634 344.774 366.85 344.231C364.842 348.219 360.128 357.304 357.106 360.909C349.891 369.517 335.343 373.903 330.536 375.16C328.921 380.065 327.405 385.684 327.517 387.202C327.884 392.177 330.747 396.239 333.777 400.539C335.462 402.929 337.204 405.401 338.648 408.179C339.861 410.513 340.837 413.324 341.78 416.043C342.658 418.572 343.566 421.187 344.591 423.159C347.015 427.821 350.388 430.737 354.294 434.114C359.353 438.487 366.553 440.17 372.906 441.655C381.322 443.621 391.797 446.07 400.744 443.065C407.494 440.797 418.805 435.067 424.246 430.469C440.425 416.796 447.012 403.504 446.271 386.024C446.206 384.48 447.405 383.175 448.949 383.11C450.49 383.049 451.799 384.243 451.864 385.787C452.675 404.929 445.272 420.028 427.859 434.743C421.848 439.823 409.908 445.89 402.527 448.37C398.844 449.607 395.05 450.08 391.285 450.08Z" fill="black"/>
<path d="M325.797 360.113C333.887 359.577 344.691 352.023 350.094 345.981C355.498 339.939 359.689 331.381 360.709 323.34C362.226 324.934 363.405 324.902 364.708 326.742C366.504 329.277 368.334 333.76 369.777 336.423C372.268 341.021 376.334 338.185 374.811 343.187C373.199 348.483 365.984 360.775 361.55 364.09C355.341 368.73 349.036 375.505 342.002 378.763C338.207 380.52 325.908 380.808 325.908 380.808C325.908 380.808 324.496 377.617 322.318 374.036C321.419 372.559 319.447 370.951 318.88 369.574C318.023 367.491 316.295 362.888 316.558 360.65C316.792 358.663 319.528 352.543 319.528 352.543C319.528 352.543 320.396 360.471 325.797 360.113L325.797 360.113Z" fill="white"/>
<path d="M325.915 383.609C324.81 383.609 323.805 382.957 323.356 381.943C323.343 381.914 321.982 378.861 319.933 375.492C319.669 375.057 319.138 374.465 318.626 373.893C317.727 372.889 316.797 371.852 316.299 370.641C314.977 367.428 313.467 363.03 313.785 360.326C314.048 358.088 316.297 352.931 316.98 351.403C317.496 350.25 318.72 349.584 319.969 349.781C321.218 349.977 322.18 350.985 322.318 352.241C322.323 352.284 323.042 357.485 325.619 357.323C332.57 356.862 342.656 350.11 348.015 344.118C353.222 338.295 357.025 330.199 357.939 322.99C358.075 321.918 358.816 321.02 359.843 320.683C360.869 320.347 361.999 320.631 362.743 321.413C363.179 321.87 363.554 322.111 364.074 322.445C364.912 322.983 365.955 323.653 366.999 325.127C368.304 326.969 369.56 329.595 370.669 331.913C371.237 333.1 371.773 334.222 372.245 335.092C372.873 336.252 373.505 336.509 374.461 336.897C376.748 337.827 378.898 339.399 377.495 344.004C375.765 349.687 368.215 362.608 363.232 366.333C361.25 367.814 359.26 369.52 357.153 371.325C352.771 375.08 348.24 378.963 343.185 381.304C339.07 383.21 328.132 383.557 325.981 383.608C325.959 383.608 325.936 383.608 325.915 383.608L325.915 383.609ZM319.585 360.026C319.454 360.446 319.369 360.776 319.345 360.979C319.238 361.889 319.935 364.769 321.476 368.512C321.613 368.839 322.353 369.665 322.795 370.159C323.478 370.921 324.183 371.708 324.716 372.585C325.987 374.675 327.004 376.626 327.658 377.953C332.274 377.756 338.747 377.192 340.832 376.226C345.185 374.21 349.417 370.584 353.51 367.076C355.594 365.291 357.749 363.444 359.88 361.851C363.6 359.071 370.571 347.526 372.14 342.375C372.179 342.247 372.21 342.135 372.236 342.035C370.937 341.505 368.86 340.596 367.322 337.759C366.783 336.764 366.217 335.581 365.618 334.327C364.646 332.294 363.548 330 362.551 328.535C360.755 335.445 357.057 342.403 352.187 347.848C346.048 354.714 334.779 362.324 325.989 362.908C323.112 363.097 321.036 361.822 319.585 360.026Z" fill="black"/>
<path d="M337.792 370.37C338.342 368.169 336.835 365.896 334.425 365.295C332.015 364.693 329.616 365.989 329.066 368.19C328.516 370.392 330.024 372.664 332.433 373.266C334.843 373.868 337.242 372.571 337.792 370.37Z" fill="black"/>
<path d="M333.106 327.557C335.23 327.05 337.08 325.733 338.645 324.211C343.082 319.899 345.557 313.85 346.394 307.721C347.232 301.591 345.068 285.398 343.903 279.322C343.124 275.263 324.989 274.423 322.296 275.263C320.506 275.821 300.755 290.566 301.688 293.154C303.115 297.106 314.749 328.113 315.946 328.284" fill="white"/>
<path d="M315.962 331.089C315.83 331.089 315.696 331.08 315.562 331.06C313.76 330.802 313.106 329.649 310.853 324.386C309.688 321.665 308.159 317.889 306.309 313.163C303.072 304.895 299.775 296.068 299.068 294.109C298.725 293.158 298.822 292.13 299.358 291.052C300.428 288.898 304.171 285.27 310.484 280.268C310.572 280.198 319.338 273.264 321.475 272.597C324.509 271.651 338.697 272.174 343.951 275.319C345.484 276.236 346.396 277.408 346.663 278.801C347.784 284.644 350.099 301.374 349.18 308.105C348.185 315.383 345.141 321.818 340.608 326.223C338.379 328.389 336.142 329.718 333.768 330.285C332.265 330.644 330.754 329.717 330.395 328.213C330.036 326.71 330.964 325.2 332.467 324.841C333.815 324.52 335.241 323.634 336.706 322.211C340.347 318.672 342.807 313.393 343.633 307.348C344.374 301.922 342.471 286.851 341.234 280.217C340.578 279.748 338.162 278.729 332.518 278.128C328.006 277.648 324.215 277.736 323.227 277.923C322.262 278.45 318.243 281.232 313.469 285.045C307.971 289.437 305.479 292.007 304.657 293.1C307.292 300.29 316.012 323.13 317.881 326.257C318.518 326.86 318.862 327.752 318.729 328.686C318.529 330.082 317.331 331.089 315.961 331.089L315.962 331.089Z" fill="black"/>
<path d="M319.115 307.133C317.247 301.968 314.218 297.491 309.767 294.502C307.091 292.704 304.292 293.742 301.801 291.645C296.359 287.066 293.811 279.328 288.73 274.266C287.245 272.787 285.516 271.536 283.573 271.023C279.407 269.924 276.146 270.416 275.27 274.83C274.446 278.985 276.881 283.855 278.902 287.16C281.093 290.742 283.782 293.93 285.929 297.544C288.447 301.782 290.619 306.318 292.569 310.861C299.133 326.151 310.927 329.945 310.927 329.945C310.927 329.945 313.561 331.172 318.305 330.322" fill="white"/>
<path d="M315.04 333.419C312.258 333.419 310.479 332.803 309.889 332.561C308.397 332.042 296.633 327.517 289.956 311.964C287.776 306.888 285.658 302.638 283.481 298.972C282.424 297.194 281.23 295.525 279.965 293.759C278.791 292.119 277.576 290.423 276.473 288.619C273.001 282.942 271.696 278.253 272.484 274.284C272.979 271.791 274.128 269.966 275.901 268.858C277.978 267.561 280.708 267.384 284.245 268.317C286.446 268.897 288.605 270.232 290.665 272.283C293.251 274.86 295.178 277.968 297.041 280.974C299.069 284.245 300.984 287.334 303.562 289.503C304.258 290.089 304.999 290.235 306.356 290.462C307.766 290.698 309.52 290.991 311.287 292.178C315.981 295.331 319.486 300.043 321.706 306.181C322.231 307.634 321.479 309.239 320.025 309.764C318.571 310.289 316.967 309.537 316.441 308.084C314.635 303.088 311.851 299.299 308.165 296.824C307.402 296.312 306.533 296.166 305.433 295.982C303.839 295.716 301.857 295.384 299.957 293.786C296.696 291.041 294.452 287.422 292.283 283.922C290.511 281.064 288.837 278.363 286.714 276.248C285.362 274.902 284.051 274.054 282.817 273.728C280.28 273.059 279.254 273.363 278.868 273.604C278.457 273.861 278.157 274.456 277.975 275.373C277.635 277.086 277.927 280.267 281.249 285.699C282.247 287.33 283.35 288.87 284.517 290.501C285.795 292.285 287.116 294.13 288.294 296.114C290.598 299.991 292.824 304.454 295.1 309.756C301.035 323.579 311.322 327.139 311.757 327.284C311.895 327.329 311.928 327.336 312.046 327.396C312.309 327.498 314.28 328.192 317.77 327.567C319.291 327.296 320.746 328.307 321.019 329.828C321.291 331.349 320.279 332.804 318.757 333.076C317.372 333.324 316.129 333.418 315.041 333.418L315.04 333.419Z" fill="black"/>
<path d="M324.686 233.952C324.686 229.652 310.906 226.167 293.907 226.167C276.909 226.167 263.129 229.652 263.129 233.952V235.205L267.697 333.067H320.118C320.118 333.067 324.686 234.379 324.686 233.952L324.686 233.952Z" fill="white"/>
<path d="M320.156 335.869H267.734C266.239 335.869 265.008 334.694 264.938 333.201L260.37 235.339C260.368 235.295 260.367 235.252 260.367 235.208V233.955C260.367 230.319 264.007 227.631 271.494 225.737C277.526 224.211 285.499 223.371 293.945 223.371C302.391 223.371 310.364 224.211 316.395 225.737C323.882 227.631 327.522 230.319 327.522 233.955C327.522 234.382 324.659 296.318 322.951 333.199C322.882 334.693 321.651 335.868 320.155 335.868L320.156 335.869ZM270.405 330.272H317.483C318.191 314.981 321.696 239.217 321.915 234.13C321.479 233.564 319.379 232.113 313.665 230.841C308.241 229.633 301.238 228.968 293.945 228.968C286.651 228.968 279.648 229.633 274.225 230.841C268.469 232.122 266.38 233.586 265.965 234.142V235.143L270.405 330.272Z" fill="black"/>
<path d="M293.9 338.47C308.206 338.47 319.803 336.052 319.803 333.069C319.803 330.086 308.206 327.667 293.9 327.667C279.594 327.667 267.996 330.086 267.996 333.069C267.996 336.052 279.594 338.47 293.9 338.47Z" fill="white"/>
<path d="M293.91 341.271C286.804 341.271 280.096 340.688 275.022 339.63C270.808 338.751 265.207 337.115 265.207 333.071C265.207 329.026 270.808 327.39 275.022 326.512C280.096 325.454 286.804 324.871 293.91 324.871C301.015 324.871 307.723 325.454 312.798 326.512C317.011 327.391 322.612 329.026 322.612 333.071C322.612 337.115 317.011 338.751 312.798 339.63C307.723 340.688 301.015 341.271 293.91 341.271ZM272.208 333.071C275.436 334.25 282.895 335.674 293.91 335.674C304.924 335.674 312.384 334.25 315.612 333.071C312.384 331.892 304.924 330.468 293.91 330.468C282.895 330.468 275.436 331.892 272.208 333.071Z" fill="black"/>
<path d="M341.028 257.624C340.982 256.11 340.885 252.959 338.766 250.126C336.619 247.256 333.575 246.285 332.113 245.818L319.446 241.775C315.5 240.516 311.284 242.692 310.025 246.635C308.766 250.578 310.942 254.795 314.886 256.054L326.09 259.63L326.392 269.599C326.516 273.658 329.846 276.865 333.881 276.865C333.958 276.865 334.035 276.864 334.113 276.862C338.251 276.736 341.503 273.28 341.378 269.143L341.028 257.624Z" fill="white"/>
<path d="M333.84 279.658C328.242 279.658 323.724 275.275 323.553 269.678L323.311 261.688L313.993 258.714C311.374 257.878 309.236 256.072 307.976 253.629C306.715 251.185 306.481 248.397 307.317 245.778C309.043 240.373 314.846 237.378 320.255 239.103L332.922 243.147C334.525 243.658 338.281 244.856 340.966 248.443C343.614 251.985 343.733 255.873 343.784 257.533L344.134 269.052C344.306 274.725 339.83 279.481 334.156 279.653C334.053 279.656 333.946 279.658 333.839 279.658L333.84 279.658ZM317.128 244.213C315.138 244.213 313.286 245.487 312.65 247.481C312.268 248.676 312.375 249.947 312.95 251.062C313.525 252.177 314.5 253.001 315.696 253.383L326.9 256.959C328.03 257.319 328.81 258.354 328.846 259.54L329.149 269.508C329.228 272.109 331.371 274.145 333.982 274.06C336.575 273.981 338.617 271.811 338.539 269.223L338.188 257.704C338.148 256.382 338.073 253.922 336.483 251.796C334.873 249.645 332.497 248.886 331.22 248.479L318.553 244.436C318.08 244.285 317.6 244.213 317.128 244.213L317.128 244.213Z" fill="black"/>
<path d="M300.052 279.272C297.8 278.971 295.742 277.533 294.667 275.229C292.948 271.541 294.406 267.035 297.924 265.165C304.338 261.754 309.898 259.718 314.921 258.94C315.717 258.817 316.502 258.684 317.277 258.553C323.574 257.488 330.712 256.28 338.348 260.884C341.727 262.922 342.861 267.491 340.882 271.089C338.902 274.687 334.556 275.953 331.178 273.916C327.981 271.987 324.912 272.392 319.318 273.338C318.481 273.48 317.634 273.623 316.775 273.756C313.296 274.295 309.167 275.853 304.152 278.519C302.831 279.221 301.406 279.453 300.052 279.272Z" fill="white"/>
<path d="M300.944 282.129C300.524 282.129 300.103 282.101 299.682 282.044C296.394 281.606 293.571 279.499 292.13 276.411C289.795 271.402 291.804 265.247 296.61 262.692C303.305 259.133 309.155 257 314.493 256.174C315.253 256.056 316.003 255.929 316.744 255.804L316.81 255.793C323.253 254.702 331.269 253.347 339.793 258.487C344.437 261.287 346.025 267.545 343.333 272.437C341.978 274.9 339.779 276.647 337.142 277.356C334.61 278.036 331.979 277.665 329.732 276.311C327.476 274.95 325.333 275.158 319.784 276.096C318.934 276.24 318.075 276.385 317.203 276.52C314.039 277.01 310.2 278.472 305.466 280.989C304.049 281.742 302.506 282.129 300.943 282.129L300.944 282.129ZM326.198 260.367C323.324 260.367 320.514 260.842 317.746 261.31L317.678 261.322C316.912 261.452 316.136 261.583 315.35 261.704C310.641 262.433 305.371 264.373 299.238 267.634C297.018 268.814 296.106 271.69 297.204 274.045C297.834 275.395 299.037 276.312 300.423 276.497C301.243 276.607 302.078 276.451 302.838 276.047C308.134 273.231 312.553 271.576 316.346 270.989C317.192 270.858 318.026 270.717 318.851 270.578C324.18 269.676 328.388 268.964 332.624 271.518C333.553 272.079 334.642 272.232 335.688 271.951C336.841 271.641 337.814 270.855 338.429 269.739C339.691 267.445 339.006 264.548 336.903 263.28C333.216 261.057 329.66 260.367 326.198 260.367H326.198Z" fill="black"/>
<path d="M332.393 285.444C332.018 285.287 330.817 285.252 327.384 286.065L301.912 292.092C301.331 292.23 300.751 292.296 300.179 292.296C296.783 292.296 293.707 289.973 292.891 286.526C291.937 282.498 294.43 278.46 298.459 277.506L323.931 271.479C327.614 270.607 334.468 268.986 340.459 272.81C343.368 274.667 344.54 277.769 344.282 281.339" fill="white"/>
<path d="M300.136 295.086C295.346 295.086 291.228 291.827 290.124 287.162C289.491 284.487 289.938 281.725 291.382 279.386C292.826 277.046 295.096 275.409 297.772 274.775L323.244 268.748C327.038 267.851 334.934 265.983 341.923 270.444C345.566 272.769 347.38 276.707 347.031 281.533C346.92 283.074 345.579 284.232 344.037 284.122C342.496 284.011 341.336 282.671 341.448 281.129C341.647 278.371 340.794 276.363 338.911 275.161C333.918 271.974 328.043 273.364 324.533 274.195L299.061 280.222C297.84 280.511 296.805 281.258 296.146 282.326C295.487 283.393 295.283 284.653 295.572 285.874C296.076 288.003 297.953 289.49 300.137 289.49C300.5 289.49 300.866 289.447 301.226 289.362L326.697 283.334C330.887 282.343 332.379 282.416 333.429 282.854C334.856 283.45 335.529 285.089 334.933 286.516C334.389 287.818 332.975 288.492 331.647 288.146C331.374 288.148 330.405 288.208 327.986 288.781L302.514 294.809C301.733 294.993 300.933 295.087 300.137 295.087L300.136 295.086ZM331.271 288.018C331.271 288.018 331.273 288.019 331.274 288.019C331.273 288.019 331.272 288.019 331.271 288.018Z" fill="black"/>
<path d="M343.212 287.564C341.816 285.757 331.059 282.288 328.375 282.324C323.751 282.386 310.639 284.907 308.564 285.076C304.429 285.414 301.369 289.036 301.709 293.161C302.049 297.286 305.67 300.355 309.796 300.015C312.682 299.777 325.162 297.379 328.414 297.315C328.841 297.397 329.794 297.733 330.438 297.959C332.465 298.671 334.988 299.559 337.76 299.33C337.793 299.327 337.825 299.324 337.857 299.321" fill="white"/>
<path d="M309.118 302.835C306.685 302.835 304.355 301.983 302.478 300.392C300.381 298.614 299.101 296.126 298.876 293.386C298.649 290.645 299.503 287.981 301.278 285.885C303.056 283.786 305.547 282.506 308.292 282.282C308.867 282.235 310.912 281.897 313.076 281.539C318.106 280.706 324.996 279.565 328.294 279.521H328.343C331.288 279.521 343.105 282.901 345.383 285.849C346.328 287.072 346.102 288.829 344.879 289.774C343.691 290.691 341.999 290.505 341.037 289.373C339.435 288.03 330.415 285.117 328.396 285.117C328.386 285.117 328.378 285.117 328.369 285.117C325.493 285.156 318.571 286.301 313.99 287.06C311.074 287.543 309.517 287.797 308.747 287.86C307.496 287.962 306.36 288.545 305.55 289.501C304.74 290.457 304.351 291.673 304.454 292.925C304.557 294.176 305.141 295.311 306.098 296.122C307.055 296.934 308.271 297.322 309.521 297.22C310.608 297.131 313.612 296.634 316.517 296.155C322.194 295.216 326.363 294.55 328.314 294.511C328.511 294.509 328.707 294.524 328.9 294.561C329.483 294.674 330.306 294.956 331.321 295.313C333.191 295.971 335.307 296.714 337.486 296.536L337.551 296.53C339.092 296.386 340.455 297.516 340.599 299.055C340.743 300.594 339.612 301.958 338.073 302.102L337.951 302.113C334.579 302.391 331.623 301.352 329.465 300.593C329.169 300.489 328.481 300.247 328.071 300.122C326.094 300.245 321.316 301.034 317.43 301.676C314.138 302.22 311.295 302.69 309.98 302.798C309.692 302.822 309.404 302.834 309.118 302.834L309.118 302.835ZM340.953 289.27C340.953 289.27 340.954 289.272 340.955 289.272C340.954 289.272 340.954 289.271 340.953 289.27Z" fill="black"/>
<path d="M134.34 338.467C139.188 336.071 144.329 335.097 149.366 336.846C154.031 338.467 153.665 344.943 152.7 346.536C151.172 349.06 147.519 349.546 144.8 348.402C142.08 347.257 133.001 336.282 128.401 333.065C119.726 326.998 114.023 327.326 108.304 328.754C102.585 330.181 98.132 334.705 94.8653 339.611C91.599 344.517 92.725 351.008 89.2596 355.776C86.5485 359.506 82.0072 361.859 79.4464 365.693C75.0397 372.293 78.7464 378.047 76.936 385.773C74.7649 395.037 81.4214 412.146 84.1033 421.275C87.3546 432.343 106.235 440.879 126.037 439.409C137.706 438.543 149.425 434.317 158.193 426.571C166.779 418.986 171.587 407.318 170.836 395.887C170.086 384.456 175.895 378.647 176.158 367.627" fill="white"/>
<path d="M121.512 442.374C102.304 442.375 84.8571 433.771 81.418 422.063C80.9389 420.432 80.3139 418.49 79.6522 416.435C76.5322 406.741 72.259 393.465 74.2113 385.134C74.8564 382.381 74.6975 379.902 74.529 377.277C74.2625 373.124 73.9871 368.83 77.1188 364.14C78.6633 361.826 80.7074 360.081 82.6846 358.392C84.3312 356.986 85.8866 355.657 86.9958 354.131C88.4068 352.19 88.9042 349.671 89.4309 347.004C90.0218 344.013 90.6325 340.919 92.5358 338.061C96.9097 331.491 101.987 327.446 107.626 326.039C114.532 324.314 120.98 324.459 130.006 330.772C131.421 331.761 133.131 333.326 134.947 335.115C140.361 332.854 145.512 332.545 150.285 334.203C152.719 335.048 154.496 336.855 155.425 339.429C156.558 342.572 156.147 346.248 155.095 347.985C152.743 351.869 147.462 352.558 143.715 350.981C141.889 350.212 139.379 347.675 135.101 343.256C134.216 342.342 133.295 341.391 132.386 340.47C132.361 340.446 132.337 340.422 132.314 340.397C130.227 338.287 128.202 336.34 126.797 335.358C118.685 329.684 113.741 330.28 108.983 331.469C104.738 332.528 100.773 335.789 97.1958 341.162C95.9091 343.094 95.4299 345.52 94.9228 348.088C94.3308 351.085 93.6599 354.483 91.5245 357.421C90.026 359.483 88.1423 361.092 86.3207 362.648C84.556 364.155 82.8889 365.579 81.7749 367.247C79.695 370.362 79.8806 373.256 80.1157 376.919C80.294 379.699 80.4963 382.851 79.6617 386.412C78.0638 393.229 82.2267 406.162 84.9811 414.721C85.654 416.812 86.2899 418.786 86.7893 420.486C89.3772 429.295 106.047 438.086 125.83 436.618C137.632 435.742 148.467 431.429 156.34 424.474C164.251 417.485 168.735 406.602 168.044 396.07C167.605 389.393 169.212 384.512 170.766 379.791C172.043 375.914 173.248 372.252 173.36 367.56C173.397 366.015 174.686 364.793 176.225 364.829C177.77 364.866 178.993 366.148 178.956 367.693C178.824 373.214 177.431 377.447 176.083 381.541C174.633 385.948 173.262 390.111 173.63 395.703C174.432 407.926 169.227 420.557 160.047 428.667C151.263 436.427 139.258 441.233 126.245 442.199C124.661 442.317 123.079 442.374 121.512 442.374ZM145.904 345.83C147.386 346.445 149.525 346.304 150.283 345.124C150.514 344.571 150.711 342.598 150.061 341.082C149.596 339.995 148.918 339.653 148.448 339.49C145.631 338.512 142.553 338.519 139.261 339.507C141.675 342 144.893 345.313 145.904 345.83L145.904 345.83Z" fill="black"/>
<path d="M105.998 416.291C126.135 414.254 141.523 403.348 140.368 391.933C139.212 380.518 121.951 372.916 101.814 374.953C81.6761 376.991 66.2883 387.897 67.4438 399.312C68.5994 410.727 85.8607 418.329 105.998 416.291Z" fill="black"/>
<path d="M99.4987 419.418C91.759 419.418 84.4688 418.043 78.4779 415.404C70.2336 411.773 65.3273 406.157 64.6625 399.59C63.9978 393.023 67.6789 386.538 75.0285 381.33C81.9086 376.454 91.3221 373.199 101.535 372.166C111.748 371.133 121.623 372.435 129.34 375.834C137.584 379.464 142.49 385.081 143.156 391.647C143.821 398.214 140.139 404.699 132.79 409.908C125.91 414.784 116.496 418.039 106.283 419.072C103.998 419.303 101.729 419.417 99.4984 419.417L99.4987 419.418ZM108.351 377.415C106.3 377.415 104.21 377.521 102.099 377.734C92.8329 378.672 84.3692 381.57 78.266 385.896C72.6323 389.889 69.7793 394.552 70.2322 399.027C70.685 403.502 74.4149 407.499 80.7347 410.282C87.581 413.298 96.4537 414.443 105.72 413.504C114.986 412.566 123.449 409.668 129.553 405.342C135.186 401.35 138.039 396.686 137.586 392.211C137.134 387.736 133.404 383.739 127.084 380.956C121.797 378.628 115.302 377.415 108.351 377.415V377.415Z" fill="black"/>
<path d="M77.1604 412.339L115.325 414.105C119.031 414.276 122.174 411.412 122.346 407.706L122.914 395.438C123.085 391.733 120.22 388.59 116.514 388.419L78.3495 386.652C74.6435 386.481 71.5001 389.346 71.3286 393.051L70.7607 405.319C70.5891 409.025 73.4544 412.167 77.1604 412.339Z" fill="white"/>
<path d="M115.663 416.908C115.515 416.908 115.367 416.905 115.218 416.898L77.0533 415.132C71.8114 414.889 67.7445 410.428 67.9869 405.188L68.5548 392.919C68.6718 390.388 69.7732 388.049 71.6557 386.334C73.5383 384.618 75.9712 383.739 78.5012 383.855L116.666 385.621C121.907 385.864 125.974 390.325 125.732 395.565L125.164 407.834C124.928 412.925 120.71 416.908 115.663 416.908ZM77.3122 409.541L115.477 411.307C117.63 411.399 119.472 409.733 119.572 407.575L120.14 395.307C120.24 393.149 118.565 391.312 116.407 391.212L78.2423 389.446C77.205 389.401 76.2043 389.762 75.4268 390.47C74.6495 391.178 74.1947 392.14 74.1468 393.178L73.5789 405.446C73.479 407.605 75.1536 409.441 77.3122 409.541Z" fill="black"/>
<path d="M140.592 398.54C143.4 398.556 146.262 399.097 148.673 400.537C151.083 401.978 152.991 404.4 153.393 407.179C153.794 409.958 152.477 413.017 149.973 414.289C148.366 415.105 146.487 415.147 144.683 415.123C137.993 415.032 119.985 414.417 117.901 413.316C113.773 411.135 115.837 406.497 115.956 404.34C116.075 402.183 117.203 400.104 118.942 398.821C120.978 397.318 123.68 396.955 126.188 397.29C128.52 397.602 138.073 398.526 140.592 398.54Z" fill="white"/>
<path d="M145.272 417.923C145.06 417.923 144.851 417.921 144.645 417.918C141.141 417.871 134.879 417.685 129.413 417.39C118.511 416.8 117.31 416.166 116.593 415.787C111.473 413.082 112.478 407.889 112.962 405.393C113.053 404.921 113.148 404.433 113.161 404.183C113.326 401.196 114.865 398.348 117.279 396.567C119.717 394.768 123.012 394.039 126.56 394.514C129.02 394.843 138.34 395.727 140.606 395.739C144.287 395.759 147.484 396.564 150.108 398.132C153.402 400.101 155.665 403.332 156.163 406.776C156.757 410.893 154.733 415.006 151.241 416.78C149.289 417.772 147.172 417.923 145.272 417.923ZM119.125 410.793C121.435 411.537 135.986 412.204 144.721 412.322C146.23 412.344 147.67 412.317 148.705 411.791C150.025 411.121 150.867 409.269 150.622 407.576C150.367 405.81 149.07 404.032 147.236 402.937C145.483 401.889 143.242 401.351 140.576 401.336C137.893 401.321 128.211 400.382 125.817 400.061C123.749 399.784 121.848 400.152 120.604 401.07C119.534 401.86 118.824 403.171 118.751 404.491C118.716 405.122 118.591 405.77 118.458 406.457C117.909 409.292 118.036 410.179 119.125 410.793L119.125 410.793Z" fill="black"/>
<path d="M112.97 402.065C112.955 404.872 111.575 415.275 103.458 414.18C96.3813 413.225 95.4878 407.275 95.5122 405.472C95.6023 398.783 96.1033 383.981 96.7093 381.704C98.0111 376.812 101.538 375.189 104.614 375.144C108.435 375.088 112.426 376.95 113.347 380.534C113.978 382.985 112.984 399.547 112.97 402.065Z" fill="white"/>
<path d="M104.613 417.067C104.116 417.067 103.609 417.032 103.093 416.963C94.7829 415.841 92.6761 408.938 92.7234 405.444C92.7665 402.236 93.1883 384.098 94.0146 380.994C95.4339 375.661 99.3847 372.431 104.583 372.355C110.193 372.276 114.913 375.353 116.068 379.847C116.547 381.709 116.403 387.333 115.946 397.739C115.859 399.743 115.783 401.474 115.779 402.09C115.777 402.434 115.677 410.579 110.853 414.771C109.11 416.286 106.975 417.067 104.613 417.067ZM104.789 377.951C104.747 377.951 104.706 377.951 104.665 377.951C102.811 377.979 100.397 378.778 99.4239 382.433C98.9931 384.115 98.4372 396.865 98.3205 405.52C98.3135 406.046 98.4081 410.683 103.842 411.416C105.222 411.602 106.284 411.327 107.18 410.547C109.423 408.598 110.171 403.987 110.181 402.059C110.185 401.336 110.256 399.724 110.354 397.494C110.545 393.125 110.994 382.894 110.641 381.219C110.087 379.067 107.3 377.951 104.788 377.951H104.789Z" fill="black"/>
<path d="M129.884 403.76C129.877 406.387 128.278 414.738 121.092 414.223C115.252 413.804 113.294 409.226 113.313 407.539C113.383 401.28 114.262 387.011 114.508 384.792C115.044 379.968 118.782 378.119 123.42 378.668C126.453 379.026 131.36 381.159 130.536 390.07C130.333 392.262 129.89 401.403 129.884 403.76Z" fill="white"/>
<path d="M121.718 417.048C121.449 417.048 121.177 417.038 120.902 417.018C113.499 416.487 110.49 410.565 110.524 407.512C110.595 401.199 111.478 386.812 111.736 384.486C112.044 381.716 113.226 379.442 115.156 377.909C117.331 376.181 120.306 375.483 123.758 375.892C128.975 376.509 134.23 380.626 133.333 390.331C133.129 392.533 132.698 401.577 132.692 403.771C132.686 406.093 131.774 411.32 128.367 414.483C126.55 416.169 124.264 417.048 121.718 417.048H121.718ZM121.902 381.377C120.529 381.377 119.395 381.69 118.638 382.292C117.881 382.893 117.443 383.813 117.3 385.104C117.055 387.302 116.189 401.548 116.121 407.574C116.123 407.585 116.781 411.112 121.302 411.436C122.644 411.532 123.679 411.197 124.558 410.381C126.447 408.628 127.091 405.098 127.094 403.756C127.101 401.415 127.541 392.165 127.759 389.816C128.233 384.687 126.666 381.872 123.1 381.45C122.685 381.401 122.284 381.377 121.902 381.377H121.902Z" fill="black"/>
<path d="M78.9314 401.319C78.6958 403.935 79.0149 408.965 80.2338 411.338C81.453 413.712 83.3768 415.225 86.5267 415.048C89.3243 414.891 92.2884 413.681 93.7788 411.463C94.7361 410.039 94.9454 408.293 95.0823 406.612C95.5906 400.373 96.5484 384.429 95.8643 382.304C94.41 377.787 90.0741 376.634 86.9166 376.892C81.647 377.324 79.6345 382.53 79.182 386.086C78.904 388.27 79.1428 398.972 78.9314 401.319Z" fill="white"/>
<path d="M86.0394 417.863C82.3739 417.863 79.5167 416.06 77.7491 412.619C76.0518 409.314 75.9382 403.411 76.149 401.07C76.2363 400.102 76.2369 397.024 76.2377 394.309C76.2388 389.809 76.2511 386.987 76.4107 385.735C77.0816 380.465 80.1352 374.642 86.6938 374.105C90.9535 373.759 96.6099 375.471 98.5342 381.449C99.6309 384.855 97.8955 406.622 97.8776 406.841C97.7183 408.796 97.4368 411.048 96.1075 413.026C94.2596 415.775 90.6507 417.622 86.6893 417.844C86.4701 417.857 86.2532 417.863 86.0394 417.863ZM87.7789 379.659C87.5256 379.659 87.3112 379.671 87.1503 379.684C82.9893 380.024 82.1001 385.373 81.9638 386.442C81.8376 387.433 81.8365 391.246 81.8356 394.31C81.8348 397.553 81.8339 400.354 81.7242 401.572C81.4972 404.09 81.895 408.438 82.7288 410.062C83.5908 411.74 84.6158 412.357 86.375 412.256C88.554 412.134 90.5978 411.189 91.4607 409.905C92.039 409.044 92.1867 407.75 92.2979 406.387C92.9478 398.412 93.6033 385.187 93.1879 383.111C92.18 380.078 89.2918 379.659 87.7787 379.659H87.7789ZM93.2042 383.16C93.2042 383.16 93.205 383.163 93.2053 383.164C93.205 383.163 93.2044 383.161 93.2042 383.16Z" fill="black"/>
<path d="M64.1247 402.456C64.3461 404.689 64.1653 407.009 65.2065 409.036C66.2478 411.063 68.1289 412.945 70.496 413.297C77.4338 414.329 78.6197 408.068 78.7367 406.632C79.1708 401.304 79.2036 387.279 78.426 385.538C76.886 382.088 73.595 381.272 71.0449 381.348C69.2001 381.403 64.474 384.64 64.1611 390.905C64.0674 392.783 63.8977 400.167 64.1247 402.456Z" fill="white"/>
<path d="M71.9067 416.204C71.3234 416.204 70.7015 416.16 70.0389 416.062C67.0468 415.616 64.2927 413.467 62.6715 410.31C61.6152 408.254 61.5007 406.138 61.3999 404.271C61.3708 403.73 61.3428 403.219 61.2944 402.729C61.0364 400.127 61.2401 392.371 61.3207 390.762C61.6852 383.469 67.2475 378.656 70.9167 378.547C75.5644 378.403 79.2167 380.54 80.937 384.394C81.1917 384.964 81.7218 386.152 81.7895 394.714C81.8257 399.271 81.7019 404.151 81.4814 406.856C81.4167 407.65 80.9305 411.74 77.7092 414.296C76.5479 415.217 74.6606 416.204 71.907 416.204H71.9067ZM66.8649 402.177C66.9259 402.791 66.9581 403.39 66.9895 403.969C67.0704 405.466 67.1403 406.76 67.6511 407.754C68.268 408.955 69.4355 410.313 70.8624 410.525C72.3318 410.744 73.433 410.543 74.2287 409.912C75.4449 408.947 75.8487 407.05 75.9016 406.401C76.3537 400.852 76.2745 388.606 75.7802 386.578C74.8022 384.513 72.7464 384.101 71.1566 384.139C70.2648 384.36 67.1367 386.527 66.9111 391.041C66.8151 392.965 66.6623 400.137 66.8646 402.177L66.8649 402.177Z" fill="black"/>
<path d="M326.422 433.948L84.4592 417.655C83.3068 417.582 82.152 417.709 81.0433 418.028L10.0787 438.474C5.20989 439.877 2.14895 444.687 2.94077 449.691C3.73288 454.695 6.57271 455.206 11.633 455.038C16.4432 454.878 22.7857 457.695 27.4099 457.404C33.5866 457.015 39.4205 456.648 45.2726 456.592C50.3006 456.544 54.7328 457.087 59.4264 457.663C65.0486 458.353 70.4411 457.537 77.5323 457.302C80.7785 457.194 85.4617 458.063 90.3946 457.3C94.6118 456.648 99.3913 455.908 103.47 455.558C110.483 454.955 116.736 454.907 120.352 454.954C124.575 458.034 132.311 462.014 144.198 462.138C156.094 462.262 164.543 458.524 169.136 455.77C173.429 456.167 181.336 456.939 191.138 458.085C194.646 458.496 198.817 458.639 203.234 458.792C206.854 458.916 210.597 459.046 213.659 459.328C223.364 460.223 233.508 461.606 242.457 462.826C253.24 464.297 263.76 465.254 272.842 465.35C279.013 465.415 280.652 465.223 281.673 464.897C287.725 462.966 305.374 453.877 308.812 453.221C313.078 452.406 336.404 445.368 335.978 440.418C335.552 435.467 331.383 434.262 326.423 433.948H326.422ZM84.79 437.846L84.9297 437.806L85.0178 437.811C84.942 437.823 84.8658 437.835 84.79 437.846V437.846Z" fill="#F9E3AE"/>
<path d="M275.038 468.163C274.359 468.163 273.614 468.159 272.795 468.15C264.136 468.059 253.795 467.201 242.061 465.602C233.143 464.386 223.035 463.007 213.383 462.118C210.399 461.842 206.698 461.715 203.119 461.591C198.643 461.437 194.416 461.291 190.795 460.868C181.542 459.785 173.929 459.034 169.754 458.642C164.412 461.689 155.829 465.058 144.151 464.939C132.304 464.816 124.261 461.077 119.43 457.746C116.074 457.72 110.212 457.788 103.692 458.349C99.7056 458.691 94.9767 459.423 90.8046 460.068C87.2989 460.61 83.9317 460.4 81.2263 460.231C79.8808 460.147 78.6098 460.069 77.6075 460.101C75.4374 460.173 73.4323 460.3 71.4934 460.423C67.0406 460.706 63.1948 460.95 59.0674 460.443C54.4704 459.879 50.1262 459.344 45.2811 459.392C39.5038 459.448 33.706 459.813 27.5676 460.199C24.8048 460.37 21.7511 459.657 18.7976 458.965C16.2928 458.378 13.7044 457.77 11.7079 457.837C7.86517 457.964 1.43203 458.178 0.158225 450.131C-0.852481 443.745 3.07139 437.579 9.28508 435.788L80.25 415.341C81.6744 414.931 83.145 414.771 84.6197 414.865L326.591 431.158C329.434 431.338 338.034 431.893 338.748 440.18C339.066 443.881 335.002 447.11 325.159 450.977C318.881 453.444 311.808 455.496 309.318 455.972C307.909 456.241 301.913 459.021 297.094 461.255C291.466 463.865 285.646 466.563 282.505 467.565C281.271 467.959 279.731 468.164 275.038 468.164L275.038 468.163ZM169.118 452.974C169.204 452.974 169.29 452.978 169.376 452.986C174.192 453.431 181.931 454.195 191.445 455.309C194.838 455.706 198.954 455.848 203.311 455.998C206.971 456.124 210.753 456.254 213.898 456.544C223.671 457.446 233.843 458.833 242.817 460.056C254.322 461.625 264.427 462.465 272.854 462.554C277.566 462.603 279.944 462.507 280.803 462.233C283.61 461.338 289.523 458.596 294.74 456.178C301.833 452.889 306.282 450.854 308.268 450.474C309.917 450.159 315.783 448.547 321.866 446.248C330.633 442.935 332.72 440.858 333.137 440.333C332.916 438.621 331.997 437.108 326.228 436.743C326.224 436.743 326.22 436.742 326.216 436.742L84.2533 420.449C83.4321 420.397 82.6039 420.487 81.8006 420.719L10.8357 441.165C7.33085 442.175 5.11743 445.653 5.6873 449.256C6.01813 451.345 6.66134 451.671 6.93619 451.811C7.88756 452.295 9.78862 452.3 11.522 452.243C14.258 452.151 17.2157 452.845 20.0756 453.516C22.6336 454.115 25.2781 454.736 27.2161 454.613C33.4312 454.222 39.3012 453.852 45.228 453.796C50.4424 453.742 54.9642 454.301 59.7495 454.887C63.3596 455.331 66.965 455.102 71.1391 454.837C73.1196 454.711 75.1679 454.582 77.4219 454.507C78.6924 454.465 80.0924 454.552 81.5753 454.644C84.1377 454.805 87.0425 454.986 89.949 454.536C94.209 453.877 99.0375 453.131 103.212 452.772C110.577 452.139 117.124 452.114 120.371 452.158C120.951 452.165 121.515 452.353 121.984 452.695C126.053 455.664 133.213 459.227 144.209 459.342C155.185 459.458 163.032 456.158 167.679 453.372C168.115 453.11 168.613 452.973 169.118 452.973L169.118 452.974ZM84.7692 440.647C83.4749 440.647 82.3235 439.748 82.0382 438.448C81.7222 437.008 82.5776 435.57 83.9936 435.16L84.1333 435.12C84.4448 435.029 84.7692 434.992 85.0936 435.015L85.1818 435.021C86.6084 435.114 87.7358 436.266 87.7966 437.695C87.8573 439.123 86.832 440.367 85.4183 440.581L85.1904 440.615C85.0491 440.637 84.9083 440.647 84.7695 440.647L84.7692 440.647Z" fill="black"/>
<path d="M312.755 438.155L269.104 448.917L263.156 422.117L307.172 414.306L312.755 438.155Z" fill="white"/>
<path d="M269.114 451.712C268.596 451.712 268.085 451.569 267.638 451.291C266.997 450.894 266.544 450.255 266.381 449.52L260.434 422.72C260.268 421.975 260.414 421.195 260.838 420.56C261.261 419.925 261.926 419.491 262.677 419.358L306.693 411.547C308.156 411.285 309.569 412.217 309.907 413.665L315.49 437.514C315.839 439.006 314.923 440.502 313.434 440.869L269.783 451.63C269.562 451.685 269.337 451.712 269.113 451.712L269.114 451.712ZM266.531 424.359L271.226 445.511L309.409 436.097L305.061 417.521L266.531 424.359H266.531Z" fill="black"/>
<path d="M161.796 415.31C161.796 415.31 203.242 407.004 218.383 406.755C252.155 406.201 263.185 422.122 263.185 422.122C263.185 422.122 190.303 422.425 168.134 432.71C160.347 436.323 144.016 440.855 144.016 440.855C144.016 440.855 131.151 436.778 124.967 433.942C107.927 426.128 34.0156 416.888 34.0156 416.888C34.0156 416.888 84.2962 404.119 86.9286 403.692C105.828 400.622 126.187 407.042 131.565 407.319C136.743 407.587 161.796 415.31 161.796 415.31L161.796 415.31Z" fill="white"/>
<path d="M143.999 443.651C143.713 443.651 143.428 443.607 143.153 443.52C142.621 443.351 130.051 439.358 123.782 436.483C107.327 428.937 34.3857 419.753 33.651 419.662C32.3156 419.495 31.2884 418.401 31.2047 417.059C31.121 415.716 32.0049 414.504 33.3092 414.173C38.468 412.862 83.7863 401.361 86.4627 400.926C101.051 398.557 116.261 401.604 125.349 403.424C128.127 403.981 130.528 404.462 131.692 404.522C136.741 404.782 157.318 411.013 161.925 412.425C167.614 411.298 204.003 404.19 218.32 403.954C218.915 403.945 219.507 403.94 220.089 403.94C253.588 403.94 264.991 419.838 265.468 420.526C266.06 421.38 266.13 422.491 265.649 423.413C265.169 424.334 264.218 424.913 263.179 424.917C262.456 424.921 190.657 425.334 169.295 435.245C161.391 438.912 145.424 443.361 144.748 443.549C144.503 443.617 144.251 443.65 143.999 443.65L143.999 443.651ZM48.7741 416.029C71.3116 419.16 113.427 425.577 126.116 431.396C131.203 433.729 141.173 437.001 144.05 437.93C147.402 436.977 160.415 433.195 166.938 430.169C185.575 421.523 237.443 419.765 256.292 419.41C255.048 418.477 253.528 417.47 251.706 416.472C245.669 413.164 234.99 409.268 218.411 409.551C203.698 409.793 162.74 417.969 162.328 418.051C161.871 418.143 161.399 418.119 160.953 417.982C151.017 414.918 134.946 410.294 131.403 410.111C129.829 410.03 127.488 409.561 124.249 408.912C115.534 407.167 100.947 404.245 87.36 406.452C85.8259 406.709 66.6664 411.508 48.7743 416.029L48.7741 416.029Z" fill="black"/>
<path d="M76.0581 405.977C88.4393 406.584 102.071 405.279 113.774 409.366C125.477 413.453 136.514 428.829 143.286 439.21C146.364 435.594 174.248 421.531 184.464 417.888C181.411 403.29 129.15 393.792 108.973 394.2C100.047 394.381 43.0664 402.58 43.0664 402.58C43.0664 402.58 70.5567 405.708 76.0583 405.977H76.0581Z" fill="white"/>
<path d="M143.296 442.004C143.236 442.004 143.177 442.002 143.117 441.998C142.236 441.942 141.433 441.474 140.951 440.734C136.998 434.674 124.968 416.232 112.861 412.004C104.662 409.141 95.1645 409.062 85.9797 408.986C82.6626 408.958 79.2328 408.93 75.9311 408.769C70.4032 408.498 43.8858 405.485 42.7598 405.356C41.3611 405.197 40.2986 404.025 40.2777 402.618C40.2569 401.211 41.2844 400.007 42.6778 399.806C45.0113 399.471 99.9322 391.581 108.926 391.399C120.205 391.171 138.682 393.763 153.854 397.704C174.384 403.037 185.608 409.634 187.214 417.311C187.5 418.68 186.731 420.05 185.414 420.52C180.72 422.194 171.507 426.424 162.487 431.045C150.469 437.202 146.073 440.262 145.427 441.02C144.894 441.646 144.113 442.004 143.296 442.004H143.296ZM76.2046 403.178C79.3926 403.335 82.6148 403.361 86.0259 403.389C95.6658 403.469 105.634 403.552 114.707 406.72C126.246 410.751 136.666 424.245 143.948 435.116C151.601 429.85 171.057 420.279 180.723 416.334C179.339 414.42 176.67 412.392 172.935 410.449C167.901 407.829 160.816 405.295 152.446 403.121C136.02 398.854 118.172 396.809 109.039 396.994C103.988 397.096 82.6912 399.896 65.7202 402.227C70.4071 402.708 74.4628 403.093 76.2046 403.178Z" fill="black"/>
<path d="M228.287 405.233C248.273 406.126 307.166 414.311 307.166 414.311L263.15 422.122L144.432 438.584C144.432 438.584 143.483 419.771 184.557 408.402C194.593 405.625 217.337 404.744 228.287 405.233Z" fill="white"/>
<path d="M144.468 441.385C143.821 441.385 143.189 441.161 142.684 440.743C142.079 440.242 141.712 439.512 141.673 438.728C141.629 437.868 141.103 417.539 183.847 405.709C194.745 402.693 218.315 401.989 228.448 402.441C248.337 403.329 305.178 411.208 307.588 411.542C308.952 411.732 309.975 412.885 310.001 414.262C310.027 415.638 309.047 416.829 307.692 417.069L263.676 424.88C263.641 424.886 263.606 424.892 263.571 424.897L144.853 441.359C144.725 441.376 144.596 441.385 144.468 441.385ZM221.669 407.904C209.857 407.904 193.201 408.927 185.341 411.103C165.315 416.645 156.002 423.904 151.715 429.018C149.658 431.472 148.551 433.638 147.956 435.278L262.749 419.361L289.02 414.699C270.021 412.212 240.94 408.601 228.198 408.032C226.304 407.947 224.087 407.904 221.669 407.904Z" fill="black"/>
<path d="M127.096 421.211C118.979 418.287 110.237 417.719 101.621 417.267C78.8541 416.07 56.7418 418.075 33.9747 416.878C31.6636 426.775 26.3867 443.366 26.3867 443.366L125.955 441.765C125.955 441.765 137.974 449.5 146.452 449.511C151.556 449.518 166.995 443.313 166.995 443.313C166.995 443.313 242.174 446.905 269.091 448.913C267.108 439.979 265.126 431.046 263.144 422.113C237.842 418.088 212.141 418.812 186.524 419.175C154.47 419.63 144.845 436.991 144.845 436.991C144.845 436.991 141.342 426.343 127.096 421.211L127.096 421.211Z" fill="white"/>
<path d="M146.469 452.318H146.459C138.431 452.307 128.038 446.324 125.185 444.584L26.4417 446.172C25.5427 446.191 24.6885 445.767 24.1508 445.044C23.6131 444.322 23.4564 443.385 23.7293 442.526C23.7819 442.361 28.9997 425.925 31.2588 416.25C31.5669 414.93 32.7775 414.022 34.1313 414.092C45.4162 414.685 56.7738 414.48 67.7572 414.283C78.8378 414.083 90.2959 413.877 101.778 414.48C111.308 414.981 119.864 415.636 128.054 418.586C137.624 422.033 142.761 427.808 145.313 431.787C150.317 426.255 162.404 416.727 186.494 416.385C188.294 416.36 190.095 416.333 191.896 416.305C215.462 415.947 239.831 415.578 263.593 419.357C264.728 419.538 265.637 420.393 265.885 421.515L271.833 448.315C272.025 449.179 271.796 450.083 271.217 450.753C270.637 451.422 269.773 451.775 268.892 451.712C243.595 449.826 174.68 446.492 167.477 446.145C164.307 447.4 151.555 452.318 146.469 452.318L146.469 452.318ZM125.965 438.974C126.502 438.974 127.028 439.129 127.48 439.42C130.636 441.447 140.202 446.712 146.466 446.721H146.472C149.8 446.721 160.19 443.044 165.961 440.724C166.335 440.574 166.738 440.507 167.139 440.525C167.858 440.56 236.277 443.837 265.555 445.861L260.836 424.595C238.136 421.201 214.683 421.557 191.982 421.901C190.179 421.928 188.376 421.955 186.574 421.981C170.928 422.203 161.076 426.661 155.565 430.361C149.633 434.344 147.318 438.33 147.295 438.37C146.756 439.343 145.693 439.898 144.588 439.792C143.48 439.688 142.544 438.93 142.196 437.874C142.07 437.505 138.826 428.415 126.157 423.851C118.686 421.16 110.563 420.546 101.484 420.069C90.199 419.475 78.8417 419.68 67.8583 419.878C57.5251 420.064 46.8627 420.256 36.1595 419.792C34.4238 426.713 31.7469 435.583 30.2234 440.513L125.919 438.974H125.965Z" fill="black"/>
</g>
<defs>
<clipPath id="clip0_53_176">
<rect width="451.92" height="468.16" fill="white"/>
</clipPath>
</defs>
</svg>
